<svg version="1.0" xmlns="http://www.w3.org/2000/svg" width="682.667" height="682.667" viewBox="0 0 512 512">
  <path d="M141.2 43.1c-24.8 3.2-45 20.4-53.4 45.4l-2.3 7-.3 155.9c-.3 172-.5 165.8 5.9 179.7 8.6 18.5 25.5 32.4 44.6 36.4 9.9 2.1 230.4 2.2 240.4.1 18.7-4 34.9-16.7 43.8-34.3 7-14 6.5-4.6 6.9-139.8.2-89.6 0-123.5-.8-127.5l-1.2-5.5-58.1-58.2c-58.1-58-58.2-58.1-63.5-59.2-6.3-1.3-152-1.3-162 0zM277 117.8c0 19.5.4 35.2 1.1 38.8 3 16.4 15.3 29.7 31.4 33.9 4.8 1.2 12.6 1.5 40.2 1.5H384v217.8l-2.8 5.3c-2 3.9-4.1 6.2-7.7 8.4l-4.8 3H143.3l-4.8-3c-3.6-2.2-5.7-4.5-7.7-8.4l-2.8-5.3V102.4l2.6-5.3c2.8-5.6 7.9-9.8 13.6-11.1 1.8-.4 32.4-.8 68.1-.9L277 85v32.8zm60 14.7 16.5 16.5H320v-16.5c0-9.1.1-16.5.3-16.5.1 0 7.6 7.4 16.7 16.5z"/><path d="M246.3 216.5c-3.3 1.7-6.1 4.1-7.9 6.8l-2.9 4.2-.5 35.5-.5 35.5-5.8.7c-7.7 1-17.6 5.8-23.5 11.6-25.3 24.7-11.9 66.5 23.4 72.5 17.7 3 36.2-6.9 44.6-24l3.3-6.8.3-39.3c.2-29.8.6-39.2 1.5-39.2.7 0 3.7.7 6.7 1.5 7.2 1.9 17.1 1.9 21.8-.1 13.7-5.7 17.5-23.1 7.4-33.7-3.8-4.1-8.8-6.3-15.6-7.1-7.1-.8-16.7-5.5-24.6-12.2-10.6-8.9-18.4-10.5-27.7-5.9z"/>
</svg>
